#!OML:ASF H:\Terrain\Patient Classification 1\Walking\liu\liu.ASF
:FULLY-SPECIFIED
:DEGREES
32
root 7.11015 15.8911 -28.6553 3.12659 5.0239 -5.41706
lowerback -4.62907 -4.12252 1.8813
upperback -1.35103 -5.67759 5.54325
thorax 1.57966 -2.84275 4.3226
lowerneck -24.4373 -0.50482 -10.3185
upperneck 22.8341 1.18158 7.23326
head 11.3581 0.576476 4.60974
rclavicle 3.03147e-015 2.94201e-014
rhumerus -45.9198 -14.956 -61.5892
rradius 12.8343
rwrist 17.168
rhand -24.7644 -17.9924
rfingers 7.12502
rthumb 1.73908 -47.965
lclavicle 3.03147e-015 2.94201e-014
lhumerus -24.6246 -19.9069 94.6541
lradius 39.9936
lwrist 6.87577
lhand -14.993 -29.2408
lfingers 7.12502
lthumb 11.1715 0.441801
rfemur -26.1462 0.781804 29.6605
rtibia 35.0963
rfoot -10.8504 3.91881
rtoes -12.0008
lfemur -2.43931 11.0084 -11.287
ltibia 60.8345
lfoot 4.05233 10.173
ltoes -13.9452
33
root 7.10786 15.9315 -28.4684 2.9295 5.10554 -4.96499
lowerback -4.25098 -4.01395 1.27147
upperback -1.33861 -5.48813 5.44071
thorax 1.41626 -2.75046 4.59511
lowerneck -23.9802 -0.739761 -10.7559
upperneck 22.3985 0.849693 7.68255
head 11.1379 0.452921 4.77438
rclavicle -4.74474e-014 1.66979e-014
rhumerus -45.8811 -16.6652 -60.2829
rradius 13.0306
rwrist 20.4942
rhand -22.062 -16.8755
rfingers 7.12502
rthumb 4.34893 -46.8108
lclavicle -4.74474e-014 1.66979e-014
lhumerus -25.1313 -19.9956 95.2477
lradius 38.9596
lwrist 6.50903
lhand -14.3767 -28.7824
lfingers 7.12502
lthumb 11.7659 0.867132
rfemur -24.8015 0.447453 29.2535
rtibia 34.4541
rfoot -11.268 4.13969
rtoes -11.6381
lfemur -4.30203 10.9546 -12.0567
ltibia 63.2739
lfoot 2.57392 11.3845
ltoes -12.7207
34
root 7.10859 15.9679 -28.2757 2.83855 5.2453 -5.13621
lowerback -4.18387 -3.96428 1.30461
upperback -1.34627 -5.4217 5.55659
thorax 1.37437 -2.71737 4.70695
lowerneck -23.7173 -0.908166 -11.1946
upperneck 22.2304 0.68751 7.91013
head 11.0412 0.371591 4.89684
rclavicle 5.77097e-014 -6.75868e-014
rhumerus -45.881 -18.5819 -58.5685
rradius 13.2445
rwrist 25.3748
rhand -17.7331 -17.6536
rfingers 7.12502
rthumb 8.52789 -47.4614
lclavicle 5.77097e-014 -6.75868e-014
lhumerus -25.6302 -19.8334 95.7678
lradius 37.8705
lwrist 6.11256
lhand -13.6415 -27.8202
lfingers 7.12502
lthumb 12.4747 1.78744
rfemur -23.6227 0.115175 29.5217
rtibia 33.9154
rfoot -11.7113 4.33815
rtoes -11.2146
lfemur -6.28513 10.9339 -12.0917
ltibia 65.4376
lfoot 0.922002 12.6608
ltoes -13.0755
35
root 7.10283 16.0134 -28.084 3.06903 5.10506 -5.40984
lowerback -4.53801 -3.7601 1.45819
upperback -1.3199 -5.17435 5.62701
thorax 1.57404 -2.59353 4.68462
lowerneck -23.7778 -0.946868 -11.0132
upperneck 22.2805 0.600914 7.80333
head 11.0825 0.333607 4.8162
rclavicle 6.53505e-015 2.62396e-014
rhumerus -44.7639 -16.0111 -61.8547
rradius 13.4471
rwrist 19.0615
rhand -22.5938 -19.6875
rfingers 7.12502
rthumb 3.83539 -49.6328
lclavicle 6.53505e-015 2.62396e-014
lhumerus -26.0666 -19.767 96.0996
lradius 36.864
lwrist 5.61264
lhand -12.7273 -26.8813
lfingers 7.12502
lthumb 13.356 2.67066
rfemur -22.7826 0.270951 29.9056
rtibia 33.3454
rfoot -12.2371 4.395
rtoes -10.15
lfemur -8.48946 11.2669 -12.0348
ltibia 67.2889
lfoot -0.394791 13.8074
ltoes -13.6309
36
root 7.09283 16.0528 -27.8964 3.54583 4.57942 -5.14432
lowerback -4.97691 -3.38928 1.06739
upperback -1.38975 -4.67395 5.47809
thorax 1.72908 -2.34379 4.75703
lowerneck -23.6366 -0.90711 -10.3971
upperneck 22.2595 0.493661 7.50708
head 11.0631 0.299194 4.58125
rclavicle -2.06736e-014 2.94201e-014
rhumerus -43.8923 -14.4572 -64.1919
rradius 13.4803
rwrist 14.3486
rhand -25.0752 -17.4693
rfingers 7.12502
rthumb 1.43895 -47.4442
lclavicle -2.06736e-014 2.94201e-014
lhumerus -26.7029 -20.0172 96.445
lradius 35.97
lwrist 5.37573
lhand -12.0515 -26.4427
lfingers 7.12502
lthumb 14.0074 3.06533
rfemur -22.1931 0.919978 29.6936
rtibia 32.7555
rfoot -12.8344 4.36581
rtoes -8.98123
lfemur -10.8028 11.8343 -12.6953
ltibia 68.8311
lfoot 3.83927 14.2209
ltoes 12.0982
37
root 7.09112 16.0936 -27.7098 3.86474 4.25345 -4.83118
lowerback -5.13245 -3.09604 0.675284
upperback -1.51404 -4.25981 5.34788
thorax 1.67404 -2.13596 4.86675
lowerneck -23.4586 -1.00736 -10.2821
upperneck 22.2823 0.276622 7.55671
head 11.0613 0.214395 4.54516
rclavicle 5.807e-014 -3.33958e-014
rhumerus -43.2094 -13.3415 -65.7793
rradius 13.6128
rwrist 11.9416
rhand -26.083 -14.538
rfingers 7.12502
rthumb 0.465537 -44.5172
lclavicle 5.807e-014 -3.33958e-014
lhumerus -27.4542 -20.307 96.9116
lradius 35.1117
lwrist 5.27563
lhand -11.4498 -25.9936
lfingers 7.12502
lthumb 14.5872 3.47342
rfemur -21.4587 1.33265 29.4014
rtibia 32.1766
rfoot -13.277 4.32898
rtoes -8.63334
lfemur -12.9389 12.0627 -13.4531
ltibia 70.0573
lfoot 3.25847 14.7807
ltoes 16.1932
38
root 7.09285 16.1342 -27.5253 3.78231 4.19241 -4.68642
lowerback -4.99357 -2.88783 0.459422
upperback -1.46913 -3.96693 5.28342
thorax 1.62887 -1.98998 4.94832
lowerneck -23.3745 -1.31207 -10.6319
upperneck 22.1701 -0.088629 7.77248
head 11.0433 0.0467948 4.62335
rclavicle -7.45443e-016 2.22639e-014
rhumerus -42.5894 -12.4981 -66.9981
rradius 13.9442
rwrist 10.7201
rhand -27.5383 -15.7446
rfingers 7.12502
rthumb -0.940012 -45.7223
lclavicle -7.45443e-016 2.22639e-014
lhumerus -27.9985 -20.5092 97.3252
lradius 34.1827
lwrist 5.09943
lhand -10.7915 -25.4896
lfingers 7.12502
lthumb 15.2213 3.93049
rfemur -20.3347 1.53504 29.3021
rtibia 31.6089
rfoot -13.6657 4.12417
rtoes -8.72536
lfemur -14.6218 12.0264 -13.963
ltibia 71.0225
lfoot 1.33959 12.8857
ltoes 21.6489
39
root 7.09312 16.1678 -27.347 3.51384 4.17774 -4.54016
lowerback -4.66206 -2.6855 0.276051
upperback -1.34269 -3.6803 5.14759
thorax 1.55231 -1.84736 4.94213
lowerneck -23.4547 -1.56365 -10.6188
upperneck 22.1167 -0.429582 7.74569
head 11.0765 -0.108564 4.55751
rclavicle -1.97667e-014 2.94201e-014
rhumerus -41.9537 -12.103 -67.9627
rradius 14.3353
rwrist 10.365
rhand -27.7953 -18.8684
rfingers 7.12502
rthumb -1.18821 -48.8449
lclavicle -1.97667e-014 2.94201e-014
lhumerus -28.5045 -20.7951 97.5896
lradius 33.2611
lwrist 4.99563
lhand -10.3267 -24.9662
lfingers 7.12502
lthumb 15.669 4.41934
rfemur -18.9838 1.75774 29.2321
rtibia 30.9222
rfoot -13.9633 3.80031
rtoes -9.1727
lfemur -16.0763 11.9085 -14.431
ltibia 71.7614
lfoot -4.61912 16.2902
ltoes -8.74484
40
root 7.09565 16.1929 -27.1743 3.40138 4.06829 -4.61274
lowerback -4.4323 -2.45029 0.36377
upperback -1.27795 -3.36299 5.0292
thorax 1.45122 -1.68732 4.79783
lowerneck -23.6383 -1.65083 -10.3101
upperneck 22.2824 -0.659191 7.77437
head 11.1966 -0.182931 4.4895
rclavicle 4.22728e-014 -1.74931e-014
rhumerus -41.4021 -14.6152 -66.7422
rradius 14.4027
rwrist 15.0825
rhand -24.3365 -21.8145
rfingers 7.12502
rthumb 2.15236 -51.7834
lclavicle 4.22728e-014 -1.74931e-014
lhumerus -29.1428 -20.9719 97.7786
lradius 32.4485
lwrist 4.6891
lhand -9.85361 -24.1659
lfingers 7.12502
lthumb 16.1246 5.18336
rfemur -17.8013 2.02246 29.4049
rtibia 30.2079
rfoot -14.0887 3.53573
rtoes -9.62379
lfemur -17.7629 11.9679 -14.6569
ltibia 72.3558
lfoot -5.56594 16.5398
ltoes -7.2304
41
root 7.09676 16.2093 -27.001 3.44129 3.65316 -4.77192
lowerback -4.41313 -2.15029 0.44505
upperback -1.23214 -2.96689 5.01921
thorax 1.45047 -1.48883 4.76601
lowerneck -23.6064 -1.73303 -10.2889
upperneck 22.2636 -0.830733 7.9387
head 11.2022 -0.237634 4.52008
rclavicle -4.72114e-015 1.11319e-014
rhumerus -40.3463 -14.0094 -68.0797
rradius 14.1986
rwrist 13.1513
rhand -26.717 -20.1076
rfingers 7.12502
rthumb -0.146712 -50.0873
lclavicle -4.72114e-015 1.11319e-014
lhumerus -29.7827 -20.9875 98.041
lradius 31.5989
lwrist 4.16727
lhand -9.73547 -23.4185
lfingers 7.12502
lthumb 16.2384 5.92141
rfemur -16.8005 2.50462 29.6751
rtibia 29.6015
rfoot -14.2842 3.27518
rtoes -10.8318
lfemur -19.5367 12.4247 -14.8219
ltibia 72.7957
lfoot -6.5422 16.7058
ltoes -8.61221
42
root 7.10074 16.2221 -26.8227 3.50171 3.11496 -4.80837
lowerback -4.51791 -1.84266 0.435999
upperback -1.13354 -2.56295 4.98506
thorax 1.57687 -1.28827 4.75541
lowerneck -23.4464 -1.84006 -10.3617
upperneck 21.9653 -0.987621 8.03602
head 11.0788 -0.299634 4.53121
rclavicle -1.55363e-014 1.74931e-014
rhumerus -39.4638 -13.2749 -68.9559
rradius 14.4613
rwrist 13.3577
rhand -26.3766 -21.3495
rfingers 7.12502
rthumb 0.181991 -51.3292
lclavicle -1.55363e-014 1.74931e-014
lhumerus -30.3576 -20.9417 98.1842
lradius 30.9354
lwrist 4.14438
lhand -9.40389 -22.6708
lfingers 7.12502
lthumb 16.5576 6.64283
rfemur -15.8643 2.98784 29.8033
rtibia 29.1171
rfoot -14.6014 3.07546
rtoes -12.5937
lfemur -21.2025 12.8336 -15.1807
ltibia 72.9925
lfoot -2.8351 23.4481
ltoes -6.65617
